<?xml version="1.0" encoding="UTF-8"?>
<svg viewBox="0 0 640 330" xmlns="http://www.w3.org/2000/svg">
 <path d="m205.52 24.52c1.72-2.95 4.65-4.81 7.47-6.56 1.19 0 2.35 0.17 3.49 0.5 1.8 1.21 3.67 2.67 3.91 5 0.39 1.29 0.63 2.62 0.89 3.94 0.58 1.73 0.85001 3.54 1.51 5.25 0.090012 2.07 0.37001 4.12 1.43 5.94 0.73 1.32 1.41 2.66 2.06 4.01 2.15 5.68 7.6 9.71 8.37 15.9 0.31001 1.01 0.65001 2.01 1.01 3 0.42 1.39 0.98999 2.73 1.58 4.05 1.42 2.51 2.13 5.33 3.43 7.89 0.26 0.49 0.78 1.46 1.05 1.95 0.97 2.02 1.97 4.02 3 6.02 0.97 2.01 1.97 4.01 3.01 5.99 1.4 2.63 2.39 5.43 3.5 8.18 1.73 2.84 2.74 6.02 4.1 9.04 0.55 1.6 0.81999 3.28 1.33 4.89 0.31 1.01 0.64999 2.01 1.01 3 0.32999 1.05 0.69998 2.07 1.12 3.09 0.10998 0.44 0.34 1.33 0.44998 1.77 0.81 1.54 0.76001 3.3 0.98001 4.98 0.76999 2.84 1.55 5.68 3.04 8.27 0.48999 0.92 0.97998 1.84 1.47 2.77 0.62997 1.35 1.29 2.7 1.94 4.05 1.67 2.59 3.16 5.44 5.7 7.32 1.32 0.28 2.67 0.45001 4 0.76001 1.64 1.12 3.25 2.31 5.04 3.2 2.49 1.41 4.8 3.12 7.16 4.74 1.15 0.70999 2.21 0.54999 3.17-0.49 2.69-0.5 4.46 1.71 6.67 2.76 1.42 0.79001 2.75 1.75 4.18 2.54 2 1.05 3.82 2.41 5.83 3.46 1.68 0.96001 3.26 2.1 4.99 3 1.69 0.95 3.27 2.1 5 2.99 1.43 0.78999 2.74 1.76 4.16 2.58 2.77 1.19 5.22 2.96 7.85 4.42 1.43 0.8 2.75 1.79 4.16 2.65 0.68002 0.27 2.04 0.79001 2.72 1.06-0.13998 0.5-0.44 1.52-0.59 2.02-9.98 15.06-20.15 29.99-29.99 45.13-11.45 18.16-23.96 35.67-35.45 53.8-11.88-9.33-24.04-18.29-35.91-27.62-2.31-1.9-4.91-3.4-7.41-5.03 1.06-1.21 2.73-2.32 0.93001-3.81 0.40999 0.029999 1.22 0.080002 1.63 0.11 2.61-4.54 5.7-8.8 8.67-13.11-3.68-3.99-8.67-6.65-12.69-10.34-0.58-0.2-1.74-0.59-2.32-0.79001-0.44-1.24-1.05-2.41-1.3-3.7 0.54001-1.29 2.22-2.16 2.17-3.61-1.73-1.47-3.7-2.61-5.6-3.84-1.84-0.94-3.75-1.74-5.84-1.91-1.85-0.98999-4.24-1.14-6.09-0.059998-1.25-0.88-2.78-0.81999-4.04 0-0.99-0.34999-1.99-0.67999-2.99-0.97-1.71-0.62-3.43-1.21-5.1-1.94l-2-1c-1.71-0.93999-3.28-2.08-4.94-3.08-1.31-0.64-2.62-1.29-3.92-1.94-0.71001 1.59-1.46 3.16-2.29 4.69-0.87999 2.03-1.6 4.13-2.45 6.17-0.51 0.92999-1.01 1.85-1.51 2.78-0.64 1.36-1.3 2.7-1.98 4.04-0.25 0.49-0.73999 1.48-0.98999 1.97-0.66 1.35-1.34 2.7-2.04 4.03-0.22 0.51-0.67999 1.52-0.90999 2.03-3.15 4.85-6.5 9.66-10.82 13.55-0.38-0.7-2.58-1.49-0.86-2.22 4.48-4.03 8.01-8.99 11.09-14.14 0.78-1.77 1.68-3.49 2.52-5.24 2.21-3.77 3.57-7.93 5.48-11.85 1.04-2.42 1.79-4.98 3.18-7.24-2.03-0.86-3.78-2.24-5.65-3.4-0.46999 1.25-1.01 2.48-1.53 3.71-0.26 0.49-0.78999 1.47-1.05 1.96-0.47 0.94-0.95001 1.88-1.43 2.82-1.16 2.41-2.41 4.78-3.55 7.21-0.48999 0.92-0.98 1.85-1.47 2.78-1.55 2.91-2.56 6.06-3.87 9.09-2.18 3.07-4.6 5.97-6.78 9.05-0.2 0.51-0.61 1.54-0.81 2.05-3.65 1.91-6.02 5.47-9.05 8.16-2.85 2.53-5.19 5.53-7.12 8.81-0.90001 1.89-1.63 3.86-2.31 5.85-0.25 0.51001-0.75 1.51-1 2.01-0.25 1.28-0.70001 2.51-1.39 3.62 0.72-0.13998 2.15-0.42999 2.87-0.57001l-0.84 0.51c1.4 1.57 1.38 3.92 0.31 5.64-0.26001 1.35-0.46001 2.74-1.03 4.02-0.11 0.44-0.33 1.33-0.44 1.77-0.42 1.01-0.82001 2.03-1.2 3.06-0.53 1.45-0.61 2.99-0.76001 4.5 0.42 0.01001 1.25 0.029999 1.66 0.040009 0.74 1.41 1.71 2.66 2.56 4-1.3 1.67-2.2 3.54-2.88 5.54-0.099991 0.45999-0.31 1.39-0.42 1.85-0.62999 1.66-0.89999 3.43-1.39 5.14-0.36 1.03-0.75 2.05-1.17 3.07-0.099991 0.44998-0.3 1.35-0.41 1.8-0.40999 1.01-0.78999 2.04-1.13 3.08-0.35001 1-0.68001 2-0.97 3.01-0.37 0.99002-0.7 1.99-1.01 3-0.35998 0.99002-0.68999 1.99-1 3-0.35998 0.99002-0.69 1.99-0.98999 3.01-0.37 0.98001-0.72 1.98-1.04 2.99-0.52 1.69-0.79 3.45-1.4 5.12-0.13 0.44-0.38 1.33-0.5 1.77-0.46 1.27-0.83 2.58-1.11 3.91-1.11-0.31-2.19-0.66-3.25-1.07-0.46-0.10001-1.38-0.31-1.84-0.41-1.72-0.70001-3.48-1.31-5.16-2.11-0.95-0.38-1.91-0.72-2.88-1.03-1-0.36002-2-0.69-3.01-0.99002-1-0.35998-2.01-0.69-3.03-0.97998-1.34-0.51001-2.71-0.95001-4.03-1.49-0.46-0.10998-1.38-0.31998-1.84-0.42999-1.03-0.41-2.07-0.76999-3.13-1.1-1.34-0.5-2.71-0.91998-4.03-1.47-0.47-0.10001-1.42-0.31-1.89-0.41-1.29-0.54999-2.62-0.98999-3.91-1.52-1.67-0.76001-3.39-1.38-5.11-1.99-1.02-0.29001-2.04-0.61002-3.05-0.94-1.04-0.35001-2.07-0.73001-3.08-1.14-0.45-0.10998-1.35-0.31-1.8-0.41998-1.02-0.41-2.04-0.79001-3.08-1.13-1-0.35001-2-0.67999-3.01-0.97-1-0.37-2-0.70999-3-1.02-1.01-0.35001-2.02-0.68002-3.04-0.97-1.27-0.49002-2.57-0.90002-3.82-1.41-1.67-0.78-3.39-1.38-5.12-1.98-1.06-0.32001-2.1-0.69-3.13-1.09-0.45-0.11002-1.35-0.32001-1.8-0.42999-1.02-0.42001-2.04-0.79001-3.08-1.12-1-0.36002-2-0.69-3.02-0.99002-1-0.35998-2.01-0.69-3.03-0.97998-1.34-0.51001-2.7-0.95001-4.03-1.49-0.47-0.10001-1.42-0.31-1.89-0.41-1.29-0.54999-2.61-0.98999-3.91-1.52-1.35-0.60998-2.71-1.2-4.13-1.63-1-0.35001-2-0.66-3.01-0.94998-0.98-0.38-1.98-0.73001-2.98-1.06-1.26-0.38-2.54-0.72-3.84-1 0.26-0.52002 0.77-1.57 1.02-2.1 0.38-1.44 0.96-2.82 1.59-4.16 0.38-0.95001 0.73-1.91 1.05-2.87 0.35-1.01 0.66-2.03 0.95-3.05 0.61-1.71 1.23-3.43 2-5.07 0.38-0.96002 0.72-1.94 1.03-2.92 0.48-1.31 0.88-2.64 1.37-3.94 0.3-1.03 0.62-2.04 0.97-3.04 0.32-0.97 0.66-1.93 1.04-2.87 0.63-1.34 1.22-2.7 1.65-4.11 0.35-1 0.67-2 0.97-3.01 0.35-1 0.68-2.01 0.98-3.03 0.67-2.1 1.44-4.17 2.57-6.07-2.13-0.68999 0.28-2.37 1.19-2.42 1.51-0.099991 3.08-0.029999 4.46 0.66 1.01 0.32001 2 0.67 2.99 1.03 1.05 0.33 2.08 0.7 3.09 1.12 0.45 0.11 1.34 0.32001 1.78 0.43001 1.04 0.39999 2.1 0.75 3.17 1.07 0.29-0.68999 0.86-2.08 1.15-2.77 0.29-0.98001 0.63-1.95 0.99-2.9 0.96-2.05 1.67-4.2 2.6-6.26 0.44-2 2.04-6.47 4.46-3.27 2.57-3.51 0.76-8.32 1.16-12.38-1.31-1.91-0.58-4.4-1.71-6.38-0.22-1.69-0.080002-3.49-1.02-4.99-0.12-0.89999-0.24-1.79-0.37-2.68-1.09-1.96-0.55-4.35-1.6-6.33-0.22-1.69-0.099998-3.49-1.03-5-0.12-0.89-0.24-1.78-0.35-2.67-1.76-2.52 0.16-5.91-1.75-8.37-0.16-5.09-0.040001-10.19-0.1-15.28 0.040001-1.62-0.22-3.37 0.93-4.71 0.07-1.87 0.11-3.73 0.19-5.6 1.6-2.36 0.66-5.34 0.98-7.99 1.34-1.74 0.82-4 1.06-6.01 1.21-1.95 0.54-4.4 1.67-6.37 0.13-0.89 0.25-1.78 0.38-2.66 1.1-1.97 0.52-4.37 1.62-6.34 0.13-0.89 0.25-1.78 0.38-2.66 1.02-1.96 0.67-4.27 1.5-6.29 0.29-1.34 0.54-2.7 1.01-3.99 0.29-1.36 0.5-2.74 1.05-4.02 0.12-0.43 0.38-1.3 0.5-1.74 0.54-1.29 0.76-2.67 1.04-4.03 0.56-1.71 0.86-3.49 1.42-5.2 0.28-1.36 0.5-2.74 1.04-4.03 0.12-0.44 0.36-1.3 0.48-1.74 1.56-2.77 0.24-6.08 0.98-9.02 0.97-1.27 1.88-2.59 2.02-4.23 1.45-0.52 2.53-1.52 3.11-2.94 0.77-1.65 1.57-3.29 2.45-4.89-0.74-2.49-2.28-4.61-3.23-7.01-0.76-2.27-0.96-4.88 0.12-7.08 0.28-0.99 0.58-1.97 0.88-2.95 2.14-2.72 4.34-6.07 7.89-6.9 2.24-0.9 4.83-0.9 7.07-0.010002 1.4 0.48 2.75 1.07 4.11 1.66 0.57 0.28 1.71 0.83 2.28 1.11 0.059998-1.57 0.10999-3.14 0.16-4.7 1.65-1.2 0.59-2.53-0.19-3.75 0.41 0.030003 1.22 0.09 1.63 0.11 0.95-2.43 2.99-4.17 4.91-5.84 1.71-0.26 3.48-0.19 5.13-0.82 0.98 0.33 1.97 0.64 2.97 0.92 1.71 0.63 3.43 1.22 5.11 1.93 0.47 0.28 1.41 0.84 1.87 1.12 0.3-0.71 0.89-2.11 1.19-2.82 0.23-2.7 2.86-4.09 3.79-6.49 0.46999-0.040001 1.41-0.13 1.88-0.17 1.02-0.45 2.06-0.88 3.11-1.26 1.89-0.74 4.02-0.84 5.99-0.46 1.39 1.14 2.67 2.43 4.26 3.29 0.26 0.48 0.78999 1.45 1.05 1.93 0.7 1.47 1.28 2.98 1.34 4.62 1.29-0.8 2.8-1.02 4.28-1.25 1.58-1 3.64-1.04 5.21 0.029999 1.29 0.22 2.6 0.43 3.89 0.73 1.61 1.02 2.99 2.36 3.95 4.02 0.3 0.98 0.59999 1.97 0.89 2.95 1.59 6.18 0.13 12.79 0.74 19.13 1.13 1.42 2.69 2.36 4.3 3.17 1.36 0.61 2.71 1.27 4.05 1.95 1.34 0.65 2.67 1.33 4 2.01 0.49 0.24 1.48 0.73 1.97 0.98 1.34 0.66 2.68 1.33 4.02 2.01 1.35 0.66 2.68 1.33 4.01 2.02 0.51 0.23 1.52 0.69 2.02 0.92 1.39 0.85 2.71 1.83 4.11 2.68 1.36 0.65 2.71 1.31 4.06 1.96 0.5 0.25 1.49 0.73 1.99 0.98 4.65 2.14 8.66 5.39 12.96 8.11 0.61 0.23 1.83 0.69 2.43 0.92001-0.18001-2.33 0.64-4.96-0.88-6.99-0.089996-1.54-0.14-3.08-0.22-4.62-1.9-2.48 0.14-5.94-1.81-8.4-0.089996-2.53-0.070007-5.06-0.16-7.58-1.34-1.63-0.84-3.77-0.94-5.68 0.090012-7.11-0.089996-14.22 0.10001-21.32 1.6-2.09 0.36-4.9 1.59-7.13 1.16-1.83 1.41-3.98 1.85-6.06z"/>
 <g fill="#fff">
  <path d="m208.61 24.05c2.14-1.55 4.36-3.24 7.14-3.28 0.38 0.39 1.13 1.17 1.51 1.56 1.76 5.28 3.23 10.68 4.12 16.18 1.4 2.16 2.49 4.51 3.25 6.98 1.5 1.35 2.81 2.97 3.04 5.04 4.7 4.35 5.34 11.27 7.54 16.97 3.24 5.8 6.26 11.78 8.53 18.03 5.93 9.93 10.01 20.85 12.95 32.01 1.27 3.24 1.48 6.77 2.54 10.07 1.62 4.07 4.25 7.7 5.44 11.95 1.93 1.74 3.5 3.81 5.09 5.85-1.36 3.19-3.44 5.97-5.48 8.74-12.48 18.42-25.36 36.57-37.77 55.03-3.21-1.77-6.2-4.02-9.73-5.12-6.36-2.25-13.51 0.13-19.66-2.99-4.1-2.31-8.39-4.43-12.05-7.42-2.27-0.98-4.46-2.12-6.62-3.29 5.33-10.63 6.08-22.68 8.24-34.18 2.46-11.19 6.43-21.96 9.56-32.96-0.059998-1.78-0.050003-3.57 0.039993-5.35-1.68-2.52-3.3-5.5-6.37-6.5-2.16-1.03-4.55-0.37-6.82-0.3-7.48 3.83-13.08 10.38-17.66 17.28-0.26001-0.18001-0.79001-0.53001-1.05-0.71001 0.42 1.68-0.48 3.09-1.26 4.45-2.29 3.9-4.95 7.64-6.47 11.93-0.19-8.68-1.14-17.34-0.91-26.02 0.38-16.62 0.95-33.23 0.99-49.85 12.16 6.6 24.7 12.5 36.74 19.32 4.25 2.85 8.99 5.12 12.56 8.87-0.42999 2.08-0.87 4.16-1.46 6.2 0.11 3.09-0.23 6.17-0.92 9.18 0.28999 2.93 0.34 5.89-0.029999 8.81 0.56999 3.95 1.47 7.86 1.88 11.83 0.68001-0.45 1.37-0.89999 2.07-1.35 0.37 0.35001 1.12 1.05 1.5 1.4-4.27-11.66-2.46-24.42-0.33-36.34 0.17999-3.4-0.91-6.74-1.02-10.15-2.5-16.8-5.28-33.96-2.7-50.92 0.31-3.92 2.74-7.18 3.58-10.95z"/>
  <path d="m123.74 32.67c2.34-0.44 4.68-0.9 7.03-1.33 3.26 2.48 6.16 6.32 5.19 10.63-2.78 12.74-5.76 25.43-8.46 38.19-0.44 1.95-1.01 3.87-1.67 5.76-1 12.04-3.04 23.98-4.45 35.98-0.36 3.33 0.51 6.58 1.13 9.82 1-0.10001 2.01-0.18001 3.01-0.25-1.23-3.73-1.86-7.67-1.18-11.57 1.62-11.91 3.03-23.85 4.87-35.72 3.17-13.26 5.96-26.61 9.08-39.88 1.63-5.76 9.86-5.68 13.84-2.44 1.74 2.08 1.93 4.99 2.55 7.54 0.68001 12.4 0.62001 24.82-0.099991 37.2-0.020004 11.64 0.039993 23.33-0.96001 34.93 0.91 8.13 0.99 16.36 1.45 24.53-0.29001 4.15 0.64 8.41-0.49 12.47 0.95 3.01 0.7 6.19 0.5 9.29 1.03 0.35998 2.06 0.73 3.09 1.11-0.11-6.55-0.98-13.18-0.009995-19.7 2.53-6.75 6.44-12.85 10.08-19.03 4.53-6.29 9.27-13.25 16.79-16.16 4.51-2.05 10.27 1.98 9.36 6.98-0.8 6.85-3.5 13.3-5.32 19.92-2 5.05-2.6 10.51-4.59 15.56-0.89999 9.8-2.47 19.69-5.85 28.97-4.77 10.9-10.53 21.36-15.08 32.37l-0.75-0.38c-1.85 5.59-6.13 10.04-10.05 14.3-3.43 3.2-6.51 6.77-10.16 9.73-0.87999 1.75-1.94 3.41-3.12 4.97-1.17 3.79-3.28 7.21-4.4 11.01-24.53-8.82-49.18-17.31-73.71-26.11 1.1-7.54-0.86-15.02-2.3-22.37-2.78-13.46-7-26.96-5.81-40.87 2.46-25.23 8.4-49.98 15.41-74.3 3.39-8.27 5.74-17.11 10.75-24.61 0.27 0.080002 0.81 0.24 1.08 0.32 1.11-2.41 3.66-1.12 5.4-0.34 1.52 2 0.89 4.47 0.21 6.65-2.74 8.84-4.52 17.97-7.58 26.71-1.63 10.1-3.37 20.3-6.87 29.95-0.88 2.33-2.2 4.46-3.64 6.48 0.42 0.050003 1.27 0.17 1.7 0.22l0.14 2.32c7.9-11.35 8.53-25.62 11.66-38.68 2.73-9.74 5.17-19.55 7.93-29.28 2.33-8.36 5.73-16.35 8.46-24.58 1.02-3.06 3.46-6.03 6.77-6.59 0.71-0.28 2.11-0.84 2.82-1.12 2.01 1.09 3.91 2.36 5.73 3.75-2.88 11.31-6.41 22.43-9.44 33.69-1.05 3.6-1.87 7.28-3.3 10.76-1.74 9.71-3.94 19.37-6.22 28.98-0.46 3.69-0.88 7.4-1.78 11.02-1.03 2.33-2.3 4.54-3.59 6.72 0.56-0.080002 1.68-0.24 2.23-0.32001-0.21 0.69-0.63 2.06-0.85001 2.75 2.45-3.52 5.17-7.2 5.58-11.6 1.55-12.14 4.86-23.95 7.25-35.93 3.4-12.4 6.95-24.76 10.47-37.13 1.66-5.65 3.26-11.34 5.7-16.71 0.95-1.97 2.84-3.22 4.47-4.58z"/>
 </g>
 <path d="m239.89 48.5c2.53 0.46 3.32 2.77 3.78 4.99 0.31 0.97 0.65001 1.94 1.03 2.89 1.3 3.04 2.35 6.2 4.07 9.04 0.87 2.03 1.58 4.12 2.45 6.16 0.73 1.32 1.41 2.67 2.07 4.03 0.47 0.93 0.95001 1.86 1.43 2.79 0.97 2.01 1.97 4.01 2.99 6 0.64999 1.35 1.32 2.68 2.02 4.01 0.5 1.07 1.03 2.13 1.53 3.2 0.5 0.93 1.01 1.86 1.54 2.79 0.68002 1.67 1.29 3.37 1.91 5.07 0.28 1.02 0.60001 2.04 0.95001 3.05 0.34 1.04 0.70999 2.06 1.13 3.08 0.10998 0.44 0.34 1.34 0.44998 1.79 0.62 1.7 0.90002 3.49 1.47 5.21 0.30002 1.39 0.39002 2.88 1.21 4.11 0.059998 1.6 0.089996 3.21 0.069977 4.82-1.63-1.21-2.25-2.96-2.26-4.93-0.68002-2.42-1.13-4.92-2.48-7.09 1.05-1.6-0.67999-3.38-0.92999-4.99-0.31-1.02-0.63-2.02-0.98001-3.02-0.44-1.41-0.98999-2.77-1.55-4.13-0.28-0.48-0.85001-1.44-1.13-1.92-1.13-2.28-1.91-4.7-2.88-7.03-0.73001-1.32-1.42-2.66-2.07-4.01-1.34-2.66-2.68-5.33-3.99-8-0.69-1.33-1.36-2.66-2.01-4-0.68001-1.34-1.36-2.68-2.01-4.02-0.25-0.49-0.73999-1.48-0.98999-1.97-1.37-2.53-2.56-5.14-3.41-7.89-0.3-1.02-0.63-2.03-0.98-3.04-0.3-1-0.64002-2-0.99-2.99-0.42-1.36-0.93001-2.68-1.44-4z"/>
 <path d="m79.42 51.24c3.53-0.88 8.51-1.36 10.71 2.2 0.56 0.040001 1.66 0.11 2.21 0.15-1.97 4.94-2.99 10.26-5.6 14.93-0.32999-3.1-3.52-2.89-5.79-3.63-2.1 1.32-4.06 2.84-5.85 4.57-4.86-5.63-2.66-15.42 4.32-18.22z" fill="#fff"/>
 <path d="m254.01 55.42c0.53-0.54 1.06-1.09 1.6-1.64 0.62001 1.59 1.33 3.13 2.08 4.66 0.53 1.04 1.09 2.08 1.62 3.12 1.31 2.55 2.09 5.31 3.32 7.88 1.34 1.98 2.69 3.95 3.68 6.14 0.66 1.33 1.33 2.67 1.98 4.01 1.4 2.55 2.55 5.22 3.51 7.97 0.10001 0.46 0.31 1.38 0.41 1.84 0.41 1.02 0.78 2.04 1.12 3.09 0.36002 0.98 0.70001 1.98 1.03 2.98 0.81003 1.73 0.60001 3.67 0.72 5.53h-2c-0.10998-1.85 0.080017-3.79-0.72-5.53-0.32999-1-0.66998-2-1.04-2.98-0.33002-1.05-0.70001-2.07-1.11-3.09-0.10001-0.46-0.29999-1.38-0.41-1.84-0.97-2.75-2.14-5.41-3.47-8-0.84-1.41-1.83-2.72-2.68-4.12-0.22998-0.51-0.69-1.52-0.91998-2.02-0.83002-1.61-1.63-3.23-2.44-4.84-0.26001-0.49-0.76001-1.47-1.01-1.96-1.41-2.65-2.45-5.45-3.47-8.26-0.59999-0.98-1.2-1.96-1.8-2.94z"/>
 <path d="m35.02 139h2.01c-0.029999 1.76-0.049999 3.53-0.11 5.3-1.84 2.97-0.52 6.69-0.99 9.99-1.16 1.33-0.92 3.09-0.95 4.71 0.09 7.76-0.079998 15.53 0.09 23.3 1.52 1.92 0.77 4.46 0.96 6.7h-2.01c-0.010002-2.1-0.02-4.2-0.1-6.29-1.62-2.11-0.35-4.93-1.54-7.19 2.01-6.51-0.98-13.92 1.55-20.23 0.47-3.3-0.86-7.03 1-9.99 0.07-2.1 0.079998-4.2 0.09-6.3z"/>
 <path d="m272.27 147.38c6.31 0.87 11.05 5.84 16.51 8.8-16.07 23.79-32.23 47.52-48.29 71.33-5.02-4.1-10.86-7.36-15.11-12.29 15.63-22.61 31.09-45.35 46.89-67.84z" fill="#fff"/>
 <path d="m43 151h2.02c-0.010002 2.1-0.02 4.19-0.1 6.29-2.58 4.69 0.75 10.73-1.86 15.41 0.11 2.34-0.72 4.99 0.87 7 0.11 3.2 0.029999 6.39 0.15 9.59 1.32 1.9 0.58 4.39 1.72 6.38 0.22 1.69 0.049999 3.53 1.07 5.02 0.09 1.21 0.15 2.43 0.23 3.65 1.99 1.52 0.16 2.96-0.95 4.13-0.080002-0.69-0.23-2.09-0.31-2.78-1.16-1.96-0.55-4.38-1.64-6.36-0.23-1.7-0.049999-3.53-1.07-5.02-0.23-2.03 0.29-4.28-1.05-6.02-0.12-3.2-0.050003-6.39-0.14-9.59-1.35-1.53-1.34-3.87-0.009998-5.4 0.16-4.53-0.02-9.07 0.14-13.59 1.75-2.56 0.65-5.83 0.93-8.71z"/>
 <path d="m183.29 215.41c2.36-2.82 1.75-8.32 6.13-8.8-0.83 2.36-1.99 4.58-3.12 6.81l-1.08 1.96c-0.87 2.06-1.59 4.18-2.41 6.26-1.16 1.93-2.48 3.77-3.56 5.76-1.12 1.82-2.11 3.7-2.91 5.68-5.04 3.26-8.72 8.14-13.11 12.17-2.04 1.63-2.61 5.07-5.7 5.13 3-6.17 8.2-11.14 13.74-15.12 3.78-4.01 6.63-8.89 9.02-13.85 1.01-2 2.01-4 3-6z"/>
 <g fill="#fff">
  <path d="m55.4 232.73c14.02 4.37 27.74 9.67 41.62 14.44 13.04 4.62 26.11 9.17 39.12 13.87 0.3 5.43-2.54 10.4-3.93 15.53-27.48-9.89-55-19.67-82.43-29.68 1.84-4.73 3.69-9.46 5.62-14.16z"/>
  <path d="m33.15 263.72c0.71-0.14002 2.14-0.42999 2.85-0.57999 0.78 2.06 1.54 4.25 0.64 6.41-0.62 2.53-1.55 5.88-4.67 6.12l0.58 1.44c-1.57-0.59998-4.13-0.28998-4.27-2.55-0.97-4.29 1.74-8.19 4.01-11.56 0.21 0.17999 0.65 0.54001 0.86 0.72z"/>
 </g>
</svg>
